# Blender v2.83.5 OBJ File: ''
# www.blender.org
mtllib sign.mtl
o Cube.001
v 0.013427 0.873029 -0.293010
v 0.013427 0.644343 -0.293010
v 0.013427 0.873029 0.293010
v 0.013427 0.644343 0.293010
v -0.013427 0.873029 -0.293010
v -0.013427 0.644343 -0.293010
v -0.013427 0.873029 0.293010
v -0.013427 0.644343 0.293010
v 0.013427 0.645504 -0.014025
v 0.013427 0.002038 -0.014025
v 0.013427 0.645504 0.014025
v 0.013427 0.002038 0.014025
v -0.013427 0.645504 -0.014025
v -0.013427 0.002038 -0.014025
v -0.013427 0.645504 0.014025
v -0.013427 0.002038 0.014025
vt 0.825482 0.543266
vt 0.825665 0.583516
vt 0.414568 0.592149
vt 0.414385 0.551900
vt 0.571044 0.547402
vt 0.410619 0.550771
vt 0.410437 0.510522
vt 0.570861 0.507153
vt 0.532325 0.992066
vt 0.372953 0.992066
vt 0.372953 0.479022
vt 0.532325 0.479022
vt 0.398683 0.531722
vt 0.398500 0.491472
vt 0.809598 0.482838
vt 0.809780 0.523088
vt 0.998954 0.005492
vt 0.998954 0.996546
vt 0.000959 0.996547
vt 0.000959 0.005493
vt 0.736282 0.543932
vt 0.575857 0.547301
vt 0.575674 0.507052
vt 0.736099 0.503682
vt 0.055592 0.950815
vt 0.036877 0.950815
vt 0.036877 0.908492
vt 0.055592 0.908492
vt 0.851061 0.605143
vt 0.399664 0.614623
vt 0.399481 0.574374
vt 0.850878 0.564893
vt 0.851454 0.691722
vt 0.400057 0.701202
vt 0.399866 0.659160
vt 0.851263 0.649680
vt 0.017600 0.908492
vt 0.036316 0.908492
vt 0.036316 0.950815
vt 0.017600 0.950815
vt 0.399670 0.615858
vt 0.851067 0.606378
vt 0.851258 0.648419
vt 0.399860 0.657899
vt 0.850873 0.563686
vt 0.399476 0.573166
vt 0.399293 0.532917
vt 0.850690 0.523437
vn 0.0000 1.0000 0.0000
vn 0.0000 0.0000 1.0000
vn -1.0000 0.0000 0.0000
vn 0.0000 -1.0000 0.0000
vn 1.0000 0.0000 0.0000
vn 0.0000 0.0000 -1.0000
usemtl Material.003
s off
f 1/1/1 5/2/1 7/3/1 3/4/1
f 4/5/2 3/6/2 7/7/2 8/8/2
f 8/9/3 7/10/3 5/11/3 6/12/3
f 6/13/4 2/14/4 4/15/4 8/16/4
f 2/17/5 1/18/5 3/19/5 4/20/5
f 6/21/6 5/22/6 1/23/6 2/24/6
usemtl Material.002
f 9/25/1 13/26/1 15/27/1 11/28/1
f 12/29/2 11/30/2 15/31/2 16/32/2
f 16/33/3 15/34/3 13/35/3 14/36/3
f 14/37/4 10/38/4 12/39/4 16/40/4
f 10/41/5 9/42/5 11/43/5 12/44/5
f 14/45/6 13/46/6 9/47/6 10/48/6
