# Blender v2.83.5 OBJ File: ''
# www.blender.org
mtllib framed_photo.mtl
o Cube
v -0.709852 0.557856 -0.008934
v -0.709852 -0.557856 -0.008934
v -0.709852 0.557856 0.008934
v -0.709852 -0.557856 0.008934
v 0.709852 0.557856 -0.008934
v 0.709852 -0.557856 -0.008934
v 0.709852 0.557856 0.008934
v 0.709852 -0.557856 0.008934
vt 0.975903 0.626967
vt 0.975903 0.009266
vt 0.983495 0.009266
vt 0.983495 0.626967
vt 0.862270 0.933329
vt 0.139684 0.933329
vt 0.139684 0.065761
vt 0.862270 0.065760
vt 0.983723 0.492718
vt 0.983723 0.007282
vt 0.991315 0.007282
vt 0.991315 0.492718
vt 0.975675 0.009266
vt 0.975675 0.626967
vt 0.968083 0.626967
vt 0.968083 0.009266
vt 0.991315 0.507282
vt 0.991315 0.992718
vt 0.983723 0.992718
vt 0.983723 0.507282
vt 0.136442 0.063868
vt 0.863257 0.063868
vt 0.863257 0.932364
vt 0.136442 0.932364
vn 0.0000 -1.0000 0.0000
vn 0.0000 0.0000 -1.0000
vn -1.0000 0.0000 0.0000
vn 0.0000 1.0000 0.0000
vn 1.0000 0.0000 0.0000
vn 0.0000 0.0000 1.0000
usemtl Material
s off
f 1/1/1 5/2/1 7/3/1 3/4/1
f 4/5/2 3/6/2 7/7/2 8/8/2
f 8/9/3 7/10/3 5/11/3 6/12/3
f 6/13/4 2/14/4 4/15/4 8/16/4
f 2/17/5 1/18/5 3/19/5 4/20/5
f 6/21/6 5/22/6 1/23/6 2/24/6
